# xmcd CD database file
#
# Track frame offsets:
#	150
#	13522
#	21805
#	38105
#	51007
#	72070
#	87790
#	100662
#	114467
#	132977
#	140972
#	153262
#	162217
#	171652
#	180250
#	195402
#	209180
#	221932
#	238380
#	251882
#
# Disc length: 3581 seconds
#
# Revision: 0
# Processed by: cddbd v1.4PL0 Copyright (c) Steve Scherf et al.
# Submitted via: CDex 1.50
#
DISCID=240dfb14
DTITLE=Johnny Hartman - Thank You For Everything
DYEAR=1978
DGENRE=Jazz
TTITLE0=I'm Glad There is You
TTITLE1=What is This Thing Called Love
TTITLE2=The Morning After
TTITLE3=I Concentrate on You
TTITLE4=Take the "A" Train
TTITLE5=Miss Otis Regrets
TTITLE6=Thank You For Everything
TTITLE7=Anything Goes
TTITLE8=Lush LIfe
TTITLE9=You Better Know It
TTITLE10=Easy to Love
TTITLE11=Warm Valley
TTITLE12=Warm Valley (Alt 1)
TTITLE13=Just One of Those Things
TTITLE14=My Little Brown Book
TTITLE15=Let's Do It
TTITLE16=While We're Young
TTITLE17=I've Got You Under My Skin
TTITLE18=Satin Doll
TTITLE19=Every Time We Say Goodbye
EXTD=YEAR: 1978
EXTT0=
EXTT1=
EXTT2=
EXTT3=
EXTT4=
EXTT5=
EXTT6=
EXTT7=
EXTT8=
EXTT9=
EXTT10=
EXTT11=
EXTT12=
EXTT13=
EXTT14=
EXTT15=
EXTT16=
EXTT17=
EXTT18=
EXTT19=
PLAYORDER=
